<svg width="100" height="100" viewBox="0 0 100 100" xmlns="http://www.w3.org/2000/svg">
  <circle cx="50" cy="50" r="45" fill="#DAA520"/>
  <!-- Hair fills background -->
  <circle cx="50" cy="50" r="45" fill="#DAA520"/>
  <path d="M5 30 Q20 10 50 15 Q80 10 95 30 Q95 50 85 70 Q70 85 50 85 Q30 85 15 70 Q5 50 5 30" fill="#DAA520"/>
  <!-- Headband -->
  <ellipse cx="50" cy="25" rx="35" ry="5" fill="#4169E1"/>
  <!-- Face -->
  <ellipse cx="50" cy="60" rx="25" ry="30" fill="#FFF8DC"/>
  <!-- Large innocent eyes -->
  <circle cx="40" cy="52" r="5" fill="white"/>
  <circle cx="60" cy="52" r="5" fill="white"/>
  <circle cx="40" cy="52" r="4" fill="#4169E1"/>
  <circle cx="60" cy="52" r="4" fill="#4169E1"/>
  <circle cx="40" cy="52" r="2" fill="#2F2F2F"/>
  <circle cx="60" cy="52" r="2" fill="#2F2F2F"/>
  <!-- Eyebrows -->
  <path d="M35 45 Q40 42 45 45" stroke="#B8860B" stroke-width="2" fill="none"/>
  <path d="M55 45 Q60 42 65 45" stroke="#B8860B" stroke-width="2" fill="none"/>
  <!-- Nose -->
  <ellipse cx="50" cy="62" rx="2" ry="3" fill="#FFB6C1"/>
  <!-- Gentle smile -->
  <path d="M45 70 Q50 75 55 70" stroke="#8B0000" stroke-width="2" fill="none"/>
  <!-- Rosy cheeks -->
  <circle cx="30" cy="65" r="4" fill="#FFB6C1" opacity="0.5"/>
  <circle cx="70" cy="65" r="4" fill="#FFB6C1" opacity="0.5"/>
</svg>