<svg width="100" height="100" viewBox="0 0 100 100" xmlns="http://www.w3.org/2000/svg">
  <circle cx="50" cy="50" r="45" fill="#DDA0DD"/>
  <!-- Cat fur with stripes -->
  <path d="M5 20 Q30 10 50 15 Q70 10 95 20 Q95 50 85 75 Q70 90 50 90 Q30 90 15 75 Q5 50 5 20" fill="#DDA0DD"/>
  <!-- Tabby stripes -->
  <path d="M20 30 Q40 25 60 30 Q80 25 90 30" stroke="#8B008B" stroke-width="3" fill="none"/>
  <path d="M15 45 Q35 40 55 45 Q75 40 85 45" stroke="#8B008B" stroke-width="3" fill="none"/>
  <path d="M20 60 Q40 55 60 60 Q80 55 90 60" stroke="#8B008B" stroke-width="3" fill="none"/>
  <path d="M25 75 Q45 70 65 75 Q85 70 95 75" stroke="#8B008B" stroke-width="3" fill="none"/>
  <!-- Ears at top -->
  <polygon points="30,5 40,-5 50,10" fill="#DDA0DD" stroke="#8B008B" stroke-width="2"/>
  <polygon points="50,10 60,-5 70,5" fill="#DDA0DD" stroke="#8B008B" stroke-width="2"/>
  <!-- Mysterious large eyes -->
  <ellipse cx="35" cy="40" rx="8" ry="12" fill="#FFD700"/>
  <ellipse cx="65" cy="40" rx="8" ry="12" fill="#FFD700"/>
  <ellipse cx="35" cy="40" rx="3" ry="8" fill="#2F2F2F"/>
  <ellipse cx="65" cy="40" rx="3" ry="8" fill="#2F2F2F"/>
  <!-- Famous massive grin -->
  <path d="M10 65 Q50 85 90 65" stroke="#2F2F2F" stroke-width="4" fill="none"/>
  <!-- Many sharp teeth -->
  <polygon points="25,68 27,78 29,68" fill="white"/>
  <polygon points="35,70 37,80 39,70" fill="white"/>
  <polygon points="45,72 47,82 49,72" fill="white"/>
  <polygon points="55,72 57,82 59,72" fill="white"/>
  <polygon points="65,70 67,80 69,70" fill="white"/>
  <polygon points="75,68 77,78 79,68" fill="white"/>
  <!-- Long whiskers -->
  <line x1="5" y1="55" x2="25" y2="52" stroke="#2F2F2F" stroke-width="2"/>
  <line x1="5" y1="62" x2="25" y2="58" stroke="#2F2F2F" stroke-width="2"/>
  <line x1="75" y1="52" x2="95" y2="55" stroke="#2F2F2F" stroke-width="2"/>
  <line x1="75" y1="58" x2="95" y2="62" stroke="#2F2F2F" stroke-width="2"/>
</svg>