<svg width="100" height="100" viewBox="0 0 100 100" xmlns="http://www.w3.org/2000/svg">
  <circle cx="50" cy="50" r="45" fill="#2F2F2F" stroke="#2F2F2F" stroke-width="2"/>
  <!-- Face fills most of circle -->
  <ellipse cx="50" cy="55" rx="35" ry="35" fill="#F5F5DC"/>
  <!-- Hat sits on head -->
  <path d="M20 25 Q50 10 80 25 L80 40 Q50 35 20 40 Z" fill="#2F2F2F"/>
  <!-- Hat band -->
  <ellipse cx="50" cy="32" rx="25" ry="6" fill="#8B0000"/>
  <!-- Card in hat band -->
  <rect x="45" y="29" width="10" height="6" fill="#FFF8DC"/>
  <text x="50" y="34" text-anchor="middle" fill="#2F2F2F" font-size="4" font-family="serif">10/6</text>
  <!-- Eyes -->
  <circle cx="40" cy="50" r="3" fill="white"/>
  <circle cx="60" cy="50" r="3" fill="white"/>
  <circle cx="40" cy="50" r="2" fill="#2F2F2F"/>
  <circle cx="60" cy="50" r="2" fill="#2F2F2F"/>
  <!-- Nose -->
  <path d="M50 58 L47 65 L53 65 Z" fill="#E6D3A3"/>
  <!-- Wild mustache -->
  <path d="M25 65 Q35 61 50 65 Q65 61 75 65" stroke="#8B4513" stroke-width="3" fill="none"/>
  <!-- Mad grin -->
  <path d="M35 75 Q50 83 65 75" stroke="#8B0000" stroke-width="2" fill="none"/>
</svg>