<svg width="100" height="100" viewBox="0 0 100 100" xmlns="http://www.w3.org/2000/svg">
  <circle cx="50" cy="50" r="45" fill="#D2B48C"/>
  <!-- Large ears fill top of circle -->
  <ellipse cx="35" cy="15" rx="8" ry="30" fill="#D2B48C" stroke="#8B7355" stroke-width="2"/>
  <ellipse cx="65" cy="15" rx="8" ry="30" fill="#D2B48C" stroke="#8B7355" stroke-width="2"/>
  <ellipse cx="35" cy="15" rx="4" ry="20" fill="#FFB6C1"/>
  <ellipse cx="65" cy="15" rx="4" ry="20" fill="#FFB6C1"/>
  <!-- Face fills most of circle -->
  <ellipse cx="50" cy="65" rx="30" ry="25" fill="#DEB887"/>
  <!-- Wild, startled eyes -->
  <circle cx="40" cy="58" r="6" fill="white"/>
  <circle cx="60" cy="58" r="6" fill="white"/>
  <circle cx="40" cy="58" r="4" fill="#2F2F2F"/>
  <circle cx="60" cy="58" r="4" fill="#2F2F2F"/>
  <circle cx="40" cy="56" r="1" fill="white"/>
  <circle cx="60" cy="56" r="1" fill="white"/>
  <!-- Twitching nose -->
  <ellipse cx="50" cy="68" rx="3" ry="2" fill="#2F2F2F"/>
  <!-- Very long whiskers -->
  <line x1="15" y1="65" x2="40" y2="66" stroke="#8B4513" stroke-width="2"/>
  <line x1="15" y1="72" x2="40" y2="70" stroke="#8B4513" stroke-width="2"/>
  <line x1="60" y1="66" x2="85" y2="65" stroke="#8B4513" stroke-width="2"/>
  <line x1="60" y1="70" x2="85" y2="72" stroke="#8B4513" stroke-width="2"/>
  <!-- Prominent buck teeth -->
  <rect x="46" y="75" width="3" height="8" fill="white"/>
  <rect x="51" y="75" width="3" height="8" fill="white"/>
  <!-- Fur texture -->
  <path d="M25 75 Q35 78 45 75" stroke="#8B7355" stroke-width="1" fill="none"/>
  <path d="M55 75 Q65 78 75 75" stroke="#8B7355" stroke-width="1" fill="none"/>
</svg>